<svg width="108" height="180" xmlns="http://www.w3.org/2000/svg" xmlns:xlink="http://www.w3.org/1999/xlink"><defs><path d="M19 .997A.992.992 0 0018.005 0h-8.01C9.455 0 9 .446 9 .997v7.006c0 .55-.453.997-.998.997H.996A.992.992 0 000 9.995v8.01c0 .54.446.995.997.995h7.006c.55 0 .997.453.997.998v7.005c0 .557.446.997.995.997h8.01c.54 0 .995-.446.995-.997v-7.006c0-.55.453-.997.998-.997h7.005a.992.992 0 00.997-.995v-8.01c0-.54-.446-.995-.997-.995h-7.006c-.55 0-.997-.453-.997-.998V.996z" id="a"/></defs><g fill="none" fill-rule="evenodd"><rect fill="#242807" x="20" width="5" height="5" rx="2"/><path d="M0 5.998A4.992 4.992 0 014.992 1h98.016A4.99 4.99 0 01108 5.998V157c0 12.702-10.307 23-23.003 23H4.992A4.99 4.99 0 010 175.002V5.998z" fill="#DAD6C3"/><path d="M3 8a4 4 0 013.998-4h94.004A4.003 4.003 0 01105 8v147.002C105 167.15 95.15 177 82.993 177H6.999A4.003 4.003 0 013 173V8z" fill-opacity=".1" fill="#FFF"/><path d="M8 21.006A4.996 4.996 0 0112.995 16h82.01A4.993 4.993 0 01100 21.006v49.999C100 79.286 93.291 86 85.001 86H12.995A4.993 4.993 0 018 80.994V21.006z" fill="#242807"/><rect stroke="#434917" stroke-width="2" fill="#434917" fill-rule="nonzero" mask="url(#b)" width="60" height="56" rx="3" transform="translate(24 23)" stroke-linecap="square"/><rect fill-opacity=".1" fill="#000" fill-rule="nonzero" x="33" y="88" width="34" height="6" rx="2"/><rect fill-opacity=".1" fill="#000" fill-rule="nonzero" x="68" y="91" width="5" height="3" rx="1.5"/><rect fill-opacity=".1" fill="#000" fill-rule="nonzero" x="8" y="90" width="24" height="4" rx="2"/><g transform="translate(11 41)" fill-rule="nonzero"><rect fill-opacity=".1" fill="#FFF" y="5" width="11" height="2" rx="1"/><circle fill="#FF6C6C" cx="4.5" cy="1.5" r="1.5"/></g><g transform="rotate(-30 334.142 -43.747)" fill="#242807"><rect x="30" width="2" height="18" rx="1"/><rect x="24" width="2" height="18" rx="1"/><rect x="18" width="2" height="18" rx="1"/><rect x="12" width="2" height="18" rx="1"/><rect x="6" width="2" height="18" rx="1"/><rect width="2" height="18" rx="1"/></g><rect width="14" height="4" rx="2" fill-rule="nonzero" fill="#000" transform="rotate(-25 364.037 -39.523)"/><rect width="14" height="4" rx="2" fill="#242807" transform="rotate(-25 364.037 -39.523)"/><rect width="14" height="4" rx="2" fill-rule="nonzero" fill="#000" transform="rotate(-25 354.537 3.33)"/><rect width="14" height="4" rx="2" fill="#242807" transform="rotate(-25 354.537 3.33)"/><g transform="translate(9 109)" fill-rule="nonzero"><use fill="#242807" fill-rule="evenodd" xlink:href="#a"/><path stroke-opacity=".05" stroke="#000" stroke-width="2" d="M8 8v0s0 0 0 0h.003H.996A1.992 1.992 0 00-1 9.995v8.01C-1 19.099-.104 20 .997 20h7.006H8s0 0 0 0v-.003 7.006C8 28.111 8.892 29 9.995 29h8.01A2.002 2.002 0 0020 27.003v-7.006V20s0 0 0 0h-.003 7.006A1.992 1.992 0 0029 18.005v-8.01A2.002 2.002 0 0027.003 8h-7.006H20s0 0 0 0v.003V.996A1.992 1.992 0 0018.005-1h-8.01A2.002 2.002 0 008 .997V8z"/><path fill="#434917" d="M14 2l2.5 4h-5m0 16h5L14 26"/><circle fill-opacity=".1" fill="#FFF" cx="14" cy="14" r="4"/><path fill="#434917" d="M6 11.5v5L2 14m20 2.5v-5l4 2.5"/></g><g transform="translate(69 118)"><circle cx="7" cy="7" r="7" fill-rule="nonzero" fill="#000"/><circle cx="7" cy="7" r="7" fill="#242807"/></g><g transform="translate(87 110)"><circle cx="7" cy="7" r="7" fill-rule="nonzero" fill="#000"/><circle cx="7" cy="7" r="7" fill="#242807"/></g><g fill-opacity=".05" transform="translate(13 4)" stroke-linecap="square" fill="#000"><rect x="26" y="168" width="18" height="5" rx="2.5"/><rect width="21" height="4" rx="2"/><rect transform="rotate(-25 71.688 116.85)" x="52.188" y="107.351" width="39" height="19" rx="9.5"/></g></g></svg>